<svg width="480" height="480" viewBox="0 0 480 480" fill="none" xmlns="http://www.w3.org/2000/svg">
<g clip-path="url(#clip0)">
<path d="M116.342 223.279L37.5083 305.319V443.744C37.5083 447.642 40.6669 450.805 44.5693 450.805H140.289C144.186 450.805 147.35 447.642 147.35 443.744V231.404L125.272 223.279H116.342Z" fill="#6C63FF"/>
<path d="M311.321 287.62H215.602C211.704 287.62 208.541 290.783 208.541 294.681V443.744C208.541 447.642 211.704 450.805 215.602 450.805H311.321C315.224 450.805 318.382 447.642 318.382 443.744V294.681C318.382 290.783 315.224 287.62 311.321 287.62Z" fill="#6C63FF"/>
<path d="M478.851 138.82C475.194 140.731 471.075 141.743 466.942 141.743C460.935 141.743 455.074 139.625 450.466 135.765L433.077 121.229L370.163 189.862V443.749C370.163 447.646 373.326 450.81 377.224 450.81H472.944C476.846 450.81 480.005 447.646 480.005 443.749V138.1C479.609 138.335 479.256 138.608 478.851 138.82Z" fill="#6C63FF"/>
<path d="M272.071 254.64C277.456 256.612 283.482 255.148 287.361 250.93L432.531 92.5608L466.504 120.956C468.166 122.34 470.491 122.598 472.407 121.596C474.323 120.588 475.448 118.545 475.255 116.385L467.893 34.0577C467.634 31.1156 465.04 28.9455 462.098 29.2139L379.766 36.5715C377.61 36.7645 375.784 38.2379 375.144 40.295C374.922 40.9823 374.852 41.679 374.913 42.3662C375.035 43.7502 375.699 45.0588 376.81 45.9862L410.84 74.4328L272.933 224.866L115.495 166.937C110.232 165.007 104.325 166.367 100.441 170.397L3.94007 270.819C-1.46398 276.444 -1.2851 285.388 4.33548 290.788C7.07987 293.428 10.6057 294.728 14.1221 294.728C17.8315 294.728 21.5315 293.273 24.3088 290.392L114.412 196.622L272.071 254.64Z" fill="#6C63FF"/>
</g>
<defs>
<clipPath id="clip0">
<rect width="480" height="480" fill="white"/>
</clipPath>
</defs>
</svg>