<svg width="24" height="24" viewBox="0 0 24 24" fill="none" xmlns="http://www.w3.org/2000/svg">
<path d="M0.455 16.5123L11.424 23.8264C11.798 24.0564 12.198 24.0594 12.576 23.8264L23.545 16.5123C23.826 16.3253 24 15.9903 24 15.6553V8.34329C24 8.00829 23.826 7.67329 23.545 7.48629L12.576 0.173252C12.202 -0.0567495 11.802 -0.0587495 11.424 0.173252L0.455 7.48629C0.174 7.67329 0 8.00829 0 8.34329V15.6553C0 15.9903 0.174 16.3253 0.455 16.5123ZM10.969 21.0404L2.893 15.6563L6.496 13.2453L10.969 16.2323V21.0404ZM13.031 21.0404V16.2323L17.504 13.2453L21.107 15.6563L13.031 21.0404ZM21.938 13.7263L19.353 11.9993L21.938 10.2713V13.7263ZM13.031 2.95927L21.107 8.34329L17.504 10.7543L13.031 7.76729V2.95927ZM12 9.5613L15.643 11.9993L12 14.4373L8.357 11.9993L12 9.5613ZM10.969 2.95927V7.76729L6.496 10.7543L2.893 8.34329L10.969 2.95927ZM2.063 10.2733V10.2723L4.648 12.0003L2.063 13.7283V10.2733Z" fill="#1E1E1E"/>
</svg>