<svg width="497" height="480" viewBox="0 0 497 480" fill="none" xmlns="http://www.w3.org/2000/svg">
<path fill-rule="evenodd" clip-rule="evenodd" d="M162.058 196.756C194.807 149.911 247.063 117.708 307.043 111.932C303.792 99.5693 299.211 88.0776 293.3 77.4568C279.275 52.457 260.737 33.3047 237.623 19.9786C214.508 6.65247 188.386 0 159.212 0C140.547 0 123.09 2.71183 106.861 8.1355C90.6326 13.5592 76.5226 20.9743 64.5312 30.381C52.5398 39.7877 41.9679 50.8893 32.8154 63.7069C23.663 76.5246 16.3961 90.2109 11.036 104.808C5.71299 119.304 2.02196 134.428 0 150.219C7.63432 139.244 16.3028 129.035 25.9087 119.596C35.612 110.062 46.7348 101.185 59.2346 92.9863C71.7345 84.7872 85.8233 78.1983 101.544 73.1983C117.264 68.1984 133.662 65.4018 150.696 64.7662L154.848 64.9993C157.645 65.1264 161.183 65.6772 165.462 66.6094C169.742 67.5416 174.488 68.8552 179.657 70.4865C184.848 72.1178 189.932 74.7026 194.911 78.2407C199.89 81.7576 204.339 85.9736 208.258 90.8253C212.178 95.6769 215.144 102.096 217.157 110.041C219.191 117.986 219.699 126.821 218.682 136.545H98.4291C100.442 124.681 103.344 114.596 107.137 106.334C110.929 98.071 115.844 90.1473 121.903 82.5627C95.2724 94.9354 74.743 111.863 60.3575 133.325C45.9721 154.786 38.9595 180.782 39.3408 211.332C39.595 236.078 47.4551 259.595 62.9211 281.798C78.387 304.001 98.0478 319.721 121.903 328.937C123.555 329.569 125.224 330.172 126.912 330.744C126.308 324.411 126 317.991 126 311.5C126 292.034 128.774 273.216 133.948 255.419C124.247 250.273 116.278 242.872 110.06 233.218C103.429 222.921 100.06 210.76 99.9334 196.756H162.058Z" fill="#6C63FF"/>
<path d="M326.534 366.786C357.614 366.786 382.81 341.591 382.81 310.51C382.81 279.43 357.614 254.234 326.534 254.234C295.453 254.234 270.258 279.43 270.258 310.51C270.258 341.591 295.453 366.786 326.534 366.786Z" fill="#6C63FF"/>
<path d="M252.154 294.231C259.63 260.045 290.137 234.372 326.534 234.372H478.055C470.016 218.412 459.385 203.667 446.381 190.663C414.368 158.651 371.806 141.021 326.534 141.021C281.261 141.021 238.699 158.651 206.686 190.663C203.607 193.741 200.665 196.919 197.856 200.186L252.154 294.231Z" fill="#6C63FF"/>
<path d="M349.627 383.065C342.34 385.389 334.581 386.648 326.534 386.648C298.251 386.648 273.523 371.147 260.394 348.194C260.3 348.049 260.207 347.905 260.119 347.754L184.858 217.397C166.764 244.807 157.044 276.91 157.044 310.51C157.044 355.783 174.674 398.345 206.686 430.358C231.211 454.882 261.931 470.954 295.314 477.136L349.627 383.065Z" fill="#6C63FF"/>
<path d="M377.764 254.234C393.058 268.17 402.671 288.238 402.671 310.51C402.671 324.518 398.865 337.652 392.237 348.939C392.17 349.069 392.111 349.201 392.038 349.329L316.761 479.714C320.003 479.897 323.26 480 326.534 480C371.806 480 414.368 462.37 446.381 430.358C478.393 398.345 496.023 355.783 496.023 310.51C496.023 291.042 492.754 272.077 486.492 254.234H377.764Z" fill="#6C63FF"/>
</svg>