<svg width="33" height="22" viewBox="0 0 33 22" fill="none" xmlns="http://www.w3.org/2000/svg">
<path d="M29.2888 0H2.82227C1.26607 0 0 1.26607 0 2.82227V19.1777C0 20.7339 1.26607 22 2.82227 22H29.2888C30.845 22 32.1111 20.7339 32.1111 19.1777V2.82227C32.1111 1.26607 30.845 0 29.2888 0ZM28.9205 1.88151L28.5438 2.19516L17.1753 11.6617C16.5264 12.202 15.5845 12.202 14.9358 11.6617L3.56728 2.19516L3.1906 1.88151H28.9205ZM1.88151 3.23984L11.1443 10.953L1.88151 17.1176V3.23984ZM29.2888 20.1185H2.82227C2.36769 20.1185 1.9875 19.7944 1.90039 19.3652L12.6529 12.2091L13.7319 13.1076C14.4051 13.6682 15.2304 13.9485 16.0556 13.9485C16.8808 13.9485 17.7061 13.6682 18.3793 13.1076L19.4583 12.2091L30.2108 19.3651C30.1236 19.7944 29.7434 20.1185 29.2888 20.1185ZM30.2296 17.1176L20.9668 10.953L30.2296 3.23984V17.1176Z" fill="#1E1E1E"/>
</svg>