<svg width="480" height="480" viewBox="0 0 480 480" fill="none" xmlns="http://www.w3.org/2000/svg">
<path d="M476.738 14.2955C475.643 8.67555 471.25 4.28248 465.629 3.18678C396.292 -10.3336 308.837 19.8312 234.237 81.0905C214.846 71.6773 192.557 68.1794 171.086 71.2621C147.723 74.6167 126.565 85.1996 109.898 101.867L19.0767 192.688C15.2291 196.536 13.9459 202.26 15.7858 207.381C17.6257 212.503 22.255 216.103 27.6735 216.624L120.011 225.497C118.318 229.109 116.687 232.729 115.137 236.357C107.612 253.967 111.348 273.316 124.888 286.856L193.068 355.035C201.982 363.95 213.414 368.614 225.21 368.614C231.331 368.614 237.55 367.358 243.566 364.787C247.246 363.216 250.916 361.561 254.579 359.841L263.476 452.426C263.997 457.843 267.597 462.473 272.718 464.313C274.27 464.869 275.876 465.14 277.469 465.14C281.134 465.14 284.729 463.704 287.411 461.022L378.234 370.2C411.225 337.208 419.213 287.03 398.902 245.634C460.39 170.792 490.128 82.9698 476.738 14.2955ZM281.081 313.211L166.713 198.843C182.07 174.627 200.753 151.357 222.108 130.003C258.378 93.7327 299.309 65.8886 339.933 48.5338L431.313 139.914C417.473 172.373 396.949 205.106 370.685 235.494C364.107 243.105 357.121 250.614 349.921 257.816C328.567 279.171 305.297 297.855 281.081 313.211ZM430.825 28.0475C437.581 28.0475 444.209 28.4467 450.664 29.2556C453.785 54.3394 450.655 82.1422 441.957 110.791L369.048 37.8834C390.305 31.4301 411.142 28.0475 430.825 28.0475ZM60.0428 191.487L129.78 121.749C150.943 100.586 182.556 93.2819 210.645 101.927C207.813 104.614 205.004 107.342 202.225 110.121C175.122 137.224 151.993 167.293 134.024 198.597L60.0428 191.487ZM232.516 338.933C225.592 341.892 218.277 340.48 212.95 335.154L144.771 266.975C139.445 261.649 138.034 254.335 140.993 247.409C144.342 239.573 148.061 231.767 152.128 224.023L255.903 327.798C248.158 331.865 240.352 335.584 232.516 338.933ZM358.352 350.319L288.613 420.058L281.479 345.814C312.729 327.857 342.746 304.759 369.805 277.699C372.616 274.889 375.381 272.023 378.12 269.134C387.048 297.306 379.906 328.766 358.352 350.319Z" fill="#6C63FF"/>
<path d="M342.494 137.431C324.595 119.533 295.472 119.533 277.575 137.431C259.676 155.329 259.676 184.452 277.575 202.35C286.244 211.02 297.772 215.796 310.035 215.796C322.296 215.796 333.824 211.02 342.494 202.35C360.392 184.452 360.392 155.329 342.494 137.431ZM322.611 182.468C319.252 185.827 314.785 187.677 310.035 187.677C305.284 187.677 300.817 185.827 297.457 182.468C290.523 175.533 290.523 164.249 297.457 157.314C300.924 153.847 305.48 152.113 310.034 152.113C314.589 152.113 319.144 153.847 322.611 157.314C329.545 164.249 329.545 175.533 322.611 182.468Z" fill="#6C63FF"/>
<path d="M137.443 342.656C131.953 337.166 123.051 337.166 117.56 342.656L4.21777 455.999C-1.27287 461.489 -1.27287 470.391 4.21777 475.882C6.96309 478.627 10.5613 480 14.1587 480C17.756 480 21.3552 478.628 24.0996 475.882L137.442 362.539C142.934 357.048 142.934 348.147 137.443 342.656Z" fill="#6C63FF"/>
<path d="M54.1247 355.783L92.4064 317.502C97.8971 312.011 97.8971 303.11 92.4064 297.619C86.9177 292.129 78.0153 292.13 72.5237 297.619L34.242 335.9C28.7514 341.391 28.7514 350.292 34.242 355.783C36.9873 358.528 40.5856 359.901 44.1829 359.901C47.7811 359.9 51.3803 358.527 54.1247 355.783Z" fill="#6C63FF"/>
<path d="M162.598 387.693L124.317 425.974C118.827 431.464 118.827 440.366 124.317 445.856C127.063 448.602 130.661 449.975 134.258 449.975C137.856 449.975 141.455 448.603 144.199 445.856L182.48 407.576C187.971 402.085 187.971 393.184 182.48 387.693C176.99 382.202 168.088 382.202 162.598 387.693Z" fill="#6C63FF"/>
</svg>