<svg width="25" height="25" viewBox="0 0 25 25" fill="none" xmlns="http://www.w3.org/2000/svg">
<path d="M12.3048 0C5.54632 0 0 5.54632 0 12.3048C0 18.0721 4.0469 23.3111 9.42086 24.6096V20.5387C8.88838 20.6553 8.39834 20.6586 7.85629 20.4989C7.12911 20.2843 6.53824 19.7998 6.09964 19.0612C5.82007 18.5896 5.32458 18.0781 4.80769 18.1157L4.68095 16.6793C5.79867 16.5836 6.76561 17.3603 7.33958 18.3246C7.59455 18.7535 7.88802 19.0049 8.26466 19.116C8.62872 19.2232 9.01962 19.1718 9.47512 19.0109C9.58947 18.099 10.0072 17.7576 10.3228 17.277V17.2762C7.11784 16.7982 5.84054 15.0979 5.33359 13.7558C4.6618 11.9738 5.02229 9.74756 6.21023 8.3407C6.23332 8.31328 6.275 8.24156 6.25886 8.19143C5.71418 6.54612 6.37789 5.18508 6.4023 5.04069C7.03091 5.22657 7.13305 4.85369 9.13284 6.06866L9.4785 6.27632C9.62307 6.3625 9.57764 6.31331 9.72221 6.30242C10.5572 6.07561 11.4374 5.95037 12.3046 5.93911C13.1784 5.95037 14.053 6.07561 14.9225 6.31162L15.0344 6.32288C15.0246 6.32138 15.0648 6.31575 15.1322 6.27557C17.6303 4.76244 17.5406 5.25699 18.2105 5.03919C18.2347 5.18376 18.8896 6.56696 18.3507 8.19143C18.2781 8.41524 20.5165 10.465 19.2758 13.7552C18.7689 15.0979 17.4918 16.7982 14.2868 17.2762V17.277C14.6976 17.9031 15.1912 18.2362 15.1885 19.528V24.6096C20.5627 23.3111 24.6094 18.0721 24.6094 12.3048C24.6096 5.54632 19.0633 0 12.3048 0V0Z" fill="#1E1E1E"/>
</svg>