<svg width="480" height="480" viewBox="0 0 480 480" fill="none" xmlns="http://www.w3.org/2000/svg">
<path d="M475.09 227.653L364.09 110.052C357.267 102.816 345.88 102.486 338.644 109.314C331.419 116.136 331.084 127.53 337.912 134.76L437.254 240L337.912 345.253C331.084 352.483 331.419 363.871 338.644 370.699C342.124 373.981 346.57 375.607 350.998 375.607C355.781 375.607 360.556 373.711 364.091 369.972L475.091 252.366C481.636 245.425 481.636 234.588 475.09 227.653Z" fill="#6C63FF"/>
<path d="M142.094 345.248L42.7578 240L142.094 134.754C148.916 127.524 148.586 116.13 141.356 109.308C134.132 102.486 122.732 102.816 115.91 110.046L4.90972 227.647C-1.63595 234.583 -1.63595 245.425 4.90972 252.361L115.916 369.968C119.456 373.718 124.226 375.608 129.008 375.608C133.436 375.608 137.883 373.976 141.356 370.693C148.593 363.871 148.916 352.478 142.094 345.248Z" fill="#6C63FF"/>
<path d="M269.121 49.4037C259.299 47.9159 250.107 54.6594 248.607 64.4816L195.806 410.084C194.306 419.912 201.056 429.098 210.884 430.598C211.809 430.736 212.72 430.803 213.627 430.803C222.369 430.803 230.037 424.425 231.399 415.52L284.199 69.9182C285.699 60.0894 278.949 50.9037 269.121 49.4037Z" fill="#6C63FF"/>
</svg>