<svg width="480" height="480" viewBox="0 0 480 480" fill="none" xmlns="http://www.w3.org/2000/svg">
<path d="M456 240H448V72C447.974 49.92 430.08 32.026 408 32H72C49.92 32.026 32.026 49.92 32 72V192H24C10.745 192 0 202.745 0 216V424C0 437.255 10.745 448 24 448H328C332.418 448 336 444.418 336 440C335.974 417.92 318.08 400.026 296 400H272V352H368V424C368 437.255 378.745 448 392 448H456C469.255 448 480 437.255 480 424V264C480 250.745 469.255 240 456 240ZM176 424C176 428.418 172.418 432 168 432H24C19.582 432 16 428.418 16 424V416H176V424ZM176 400H16V216C16 211.582 19.582 208 24 208H168C172.418 208 176 211.582 176 216V400ZM296 416C306.168 416.012 315.229 422.418 318.632 432H190.528C191.476 429.438 191.973 426.732 192 424V416H296ZM192 400V352H208V400H192ZM224 400V352H256V400H224ZM368 336H192V288H368V336ZM368 264V272H192V216C191.973 212.204 191.034 208.47 189.264 205.112C189.384 205 189.544 204.968 189.656 204.848L268.856 125.648C271.926 122.47 271.838 117.405 268.66 114.336C265.56 111.342 260.645 111.342 257.544 114.336L178.344 193.536C178.152 193.736 178.072 193.992 177.904 194.2C174.8 192.76 171.421 192.01 168 192H48V72C48 58.745 58.745 48 72 48H408C421.255 48 432 58.745 432 72V240H392C378.745 240 368 250.745 368 264ZM464 424C464 428.418 460.418 432 456 432H392C387.582 432 384 428.418 384 424V416H464V424ZM464 400H384V264C384 259.582 387.582 256 392 256H456C460.418 256 464 259.582 464 264V400Z" fill="#6C63FF"/>
<path d="M95.5919 289.376C92.4679 286.253 87.4039 286.253 84.2799 289.376L50.3439 323.312C47.1659 326.382 47.0779 331.446 50.1479 334.624C53.2179 337.802 58.2819 337.89 61.4599 334.82C61.5269 334.756 61.5919 334.69 61.6559 334.624L95.5919 300.688C97.0199 298.213 94.1499 293.508 95.5919 289.376Z" fill="#6C63FF"/>
<path d="M143.396 289.376C140.296 286.382 135.381 286.382 132.28 289.376L98.3441 323.312C95.1661 326.381 95.0781 331.446 98.1481 334.624C101.217 337.802 106.282 337.89 109.46 334.82C109.527 334.756 109.592 334.69 109.656 334.624L143.592 300.688C146.661 297.51 146.574 292.445 143.396 289.376Z" fill="#6C63FF"/>
<path d="M317.46 114.344C314.36 111.35 309.445 111.35 306.344 114.344L227.144 193.544C223.966 196.613 223.878 201.678 226.947 204.856C230.016 208.034 235.081 208.122 238.259 205.053C238.326 204.989 238.391 204.923 238.456 204.856L317.656 125.656C320.726 122.478 320.638 117.413 317.46 114.344Z" fill="#6C63FF"/>
<path d="M440.772 311.032C437.672 308.037 432.756 308.037 429.656 311.032L407.032 333.656C403.854 336.726 403.766 341.79 406.836 344.968C409.906 348.146 414.97 348.234 418.148 345.164C418.214 345.1 418.28 345.034 418.344 344.968L440.968 322.344C444.038 319.166 443.95 314.102 440.772 311.032Z" fill="#6C63FF"/>
<path d="M240.16 304H240.08C235.662 304.022 232.098 307.622 232.12 312.04C232.142 316.458 235.742 320.022 240.16 320C244.578 320 248.16 316.418 248.16 312C248.16 307.582 244.578 304 240.16 304Z" fill="#6C63FF"/>
<path d="M256 64H224C219.582 64 216 67.582 216 72C216 76.418 219.582 80 224 80H256C260.418 80 264 76.418 264 72C264 67.582 260.418 64 256 64Z" fill="#6C63FF"/>
</svg>