<svg width="480" height="234" viewBox="0 0 480 234" fill="none" xmlns="http://www.w3.org/2000/svg">
<path d="M474.501 103.728C474.495 103.722 474.49 103.716 474.484 103.71L376.511 6.21006C369.172 -1.094 357.3 -1.06682 349.994 6.2738C342.689 13.6135 342.717 25.4851 350.057 32.7901L415.836 98.2501H18.75C8.39438 98.2501 0 106.644 0 117C0 127.356 8.39438 135.75 18.75 135.75H415.835L350.058 201.21C342.718 208.515 342.69 220.387 349.995 227.726C357.301 235.068 369.173 235.093 376.512 227.79L474.485 130.29C474.49 130.284 474.495 130.278 474.502 130.272C481.845 122.943 481.822 111.033 474.501 103.728Z" fill="#6C63FF"/>
</svg>