<svg width="1389" height="480" viewBox="0 0 1389 480" fill="none" xmlns="http://www.w3.org/2000/svg">
<path d="M561.233 475.435C560.573 478.116 558.168 480 555.407 480H411.61C408.793 480 406.355 478.04 405.75 475.288L360.821 270.861C358.632 262.107 355.13 244.706 350.314 218.659C349.243 212.593 348.238 206.757 347.298 201.154C346.129 194.182 333.86 194.139 332.596 201.094C332.272 202.874 331.94 204.68 331.6 206.512C327.661 227.524 323.721 246.894 319.781 264.624C316.106 282.129 300.589 352.344 273.229 475.266C272.618 478.01 270.175 480 267.364 480H123.546C120.788 480 118.385 478.119 117.722 475.442L1.84271 7.44209C0.905868 3.6585 3.76898 0 7.66683 0H120.251C123.074 0 125.516 1.96868 126.114 4.72808L177.291 240.656C184.243 271.942 189.908 299.48 194.286 323.269C195.554 330.158 207.176 330.089 208.344 323.182C210.692 309.295 213.473 293.825 216.689 276.772C224.131 238.468 231.026 206.731 237.373 181.559L278.644 4.63697C279.278 1.92127 281.699 0 284.488 0H395.096C397.9 0 400.33 1.94212 400.948 4.67716L440.93 181.559C447.935 210.67 455.047 244.268 462.27 282.352C464.841 295.905 467.106 308.239 469.067 319.352C470.297 326.324 483.129 326.331 484.407 319.368C488.324 298.021 493.531 272.003 500.028 241.314L552.176 4.70857C552.783 1.95848 555.22 0 558.036 0H670.647C674.542 0 677.404 3.65289 676.473 7.43458L561.233 475.435Z" fill="#6C63FF"/>
<path d="M969.315 107.944C969.315 136.899 960.485 161.809 942.823 182.675C925.314 203.15 900.066 218.079 867.079 227.463C866.575 227.606 866.223 228.067 866.223 228.591V228.591C866.223 229.18 866.674 229.678 867.258 229.753C944.446 239.743 983.04 276.531 983.04 340.119C983.04 383.552 965.805 417.724 931.333 442.634C897.076 467.544 849.413 480 788.344 480C715.014 480 677.283 480 604.392 480C600.503 480 597.635 476.358 598.556 472.579L619.834 385.258C620.489 382.57 622.894 380.678 625.661 380.678C671.394 380.678 729.607 380.678 770.151 380.678C797.813 380.678 817.921 376.846 830.475 369.181C843.243 361.304 849.625 349.062 849.625 332.455C849.625 319.68 846.328 309.886 839.731 303.074C833.134 296.048 822.495 290.831 807.814 287.425C793.133 283.806 773.981 281.996 750.363 281.996H727.637C724.324 281.996 721.637 279.31 721.637 275.996V193.146C721.637 189.832 724.324 187.146 727.637 187.146H751.001C815.049 187.146 847.072 170.751 847.072 137.964C847.072 125.615 842.284 116.46 832.709 110.499C823.346 104.538 810.686 101.557 794.728 101.557C767.533 101.557 725.284 101.52 697.16 101.514C693.268 101.513 690.415 97.8646 691.341 94.0846L713.275 4.57204C713.932 1.88777 716.371 -5.80387e-06 719.134 -5.60161e-06C775.247 -1.49506e-06 753.279 7.62939e-05 814.517 7.62939e-05C862.819 7.62939e-05 900.693 9.58091 928.142 28.7426C955.591 47.9042 969.315 74.3047 969.315 107.944Z" fill="#6C63FF"/>
<path d="M1242.26 103.473C1212.24 103.473 1188.82 115.822 1172 140.518C1155.18 165.004 1146.77 198.856 1146.77 242.076C1146.77 331.923 1180.94 376.846 1249.28 376.846C1269.94 376.846 1289.95 373.972 1309.33 368.224C1325.96 363.288 1342.66 357.49 1359.46 350.829C1363.43 349.254 1367.77 352.16 1367.77 356.433V450.225C1367.77 452.599 1366.37 454.756 1364.19 455.686C1326.11 471.895 1283.23 480 1235.55 480C1165.08 480 1111 459.561 1073.32 418.683C1035.85 377.804 1017.11 318.723 1017.11 241.437C1017.11 193.107 1026.16 150.631 1044.26 114.012C1062.56 77.3919 1088.75 49.2881 1122.82 29.7005C1157.1 9.90019 1197.33 0 1243.54 0C1292.15 0 1338.7 10.1782 1383.16 30.5345C1386.01 31.8424 1387.32 35.1588 1386.18 38.0867L1351.89 126.232C1350.63 129.469 1346.9 130.96 1343.73 129.528C1328.43 122.605 1313.12 116.688 1297.83 111.776C1280.59 106.241 1262.06 103.473 1242.26 103.473Z" fill="#6C63FF"/>
</svg>