<svg version="1" xmlns="http://www.w3.org/2000/svg" width="684" height="684" viewBox="0 0 513.000000 513.000000"><path d="M164.6 1.7c-2.4.7-6.3 3.1-8.8 5.2-3.6 3.3-4.9 5.2-6.4 10.3-1 3.5-1.9 7-2 7.8-.1.8-.4 2.6-.7 4-1.1 4.9-2.9 13.3-4.1 19.5-.2 1.1-1.1 5.1-2 9-.9 3.8-1.8 8.1-2 9.5-.3 1.4-.5 2.7-.6 3-.2.3-.2.8-.1 1.2 0 .4-.3 1.8-.8 3.2-.6 1.3-1.3 4.4-1.6 6.7-.3 2.4-1.2 6.9-2 9.9s-1.7 7-2 8.8c-.3 1.8-1.2 6.5-2.1 10.5-.8 3.9-1.7 8.1-2 9.2-.2 1.1-.6 3.1-.9 4.5-.3 1.4-.7 3.4-.9 4.5-.2 1.1-1.1 5-2 8.8-.9 3.7-1.8 8.1-2.1 9.7-.3 1.7-1.2 6.3-2.1 10.3-1.6 7.5-1.7 7.9-3.4 16.2-1.4 6.6-1.9 9.1-2.6 11.7-.3 1.3-.7 3.2-.8 4.3-.3 1.7-1.8 9.1-2.1 10.5-.1.3-.5 1.6-.8 3-.4 1.4-.9 3.6-1.1 5-.3 1.4-.8 3.6-1.1 5-.3 1.4-.8 4.1-1.1 6-.3 1.9-.8 3.8-1 4.1-.2.4-.6 2.4-1 4.5-.3 2.2-1.2 6.4-1.9 9.4s-1.6 6.8-1.9 8.5c-.3 1.6-2.4 11.5-4.6 22-2.2 10.4-4.3 20.1-4.5 21.5-.5 2.4-1.6 7.4-2.1 9.5-.1.5-.5 2.8-.9 5s-.9 4.3-1.1 4.6c-.2.3-.6 2.1-.9 4-.3 1.9-1 5-1.5 6.9-.5 1.9-1.1 5.1-1.4 7.1-.3 2-.8 4.2-1 5-.3.8-.8 2.5-1 3.9-.4 2.1-1.4 6.9-3.1 15.5-.3 1.1-1.8 8.1-3.4 15.6-1.7 7.4-3.3 15.1-3.6 17-.3 1.9-.8 4.1-1 4.9-.2.8-.7 2.7-1 4.2-1.1 5.9-1.7 8.6-3.7 17.3-1.1 4.9-2.2 10.3-2.5 12-.2 1.6-.9 4.8-1.5 7s-1.2 5.1-1.4 6.5c-.2 1.4-1.1 5.9-2 10-.9 4.1-1.8 8.4-2 9.5-.1 1.1-.3 2-.4 2-.2 0-.4.9-.6 2-.1 1.1-.5 3.1-.9 4.5-.3 1.4-.8 3.6-1 5-.2 1.4-.9 4.5-1.6 7-1 4.1-1.3 5.8-2.3 11.5-.2 1.1-.7 3.1-1 4.5-2.4 10.1-.7 16.5 5.3 19.8l3.9 2.2H231c171 0 173.2 0 177-2 4.8-2.5 9.3-6.7 11.4-10.9.9-1.7 1.5-3.1 1.2-3.1-.2 0 .2-2.1 1-4.6.7-2.5 1.3-4.9 1.3-5.2-.1-.4 0-.9.1-1.2.3-.9.8-3.5 1.5-7.5.3-2.2.8-4.7 1.1-5.5.3-.8.8-2.6 1-4 .2-1.4 1.1-5.7 1.9-9.5 1.8-8.3 2.3-11 3-15 .3-1.7.8-3.8 1.1-4.7.3-.9.7-2.7.9-4 .5-2.3 1-5.1 2.1-9.8.3-1.4.8-5.3 1.1-8.6.6-6.1.6-6.1-3.6-10.3-2.6-2.6-5.1-4.1-6.9-4.2-1.5-.1-52.5-.2-113.4-.3-60.8 0-110.9-.4-111.3-.7-.3-.4-.1-2.8.6-5.5.6-2.7 1.3-5.8 1.5-6.9.2-1.1.6-3.1.9-4.5.7-3.3 2.5-11.9 3.1-15 .3-1.4 1-4.3 1.5-6.5s1.2-5.4 1.5-7c.5-2.7 3.6-17.3 6.4-29.5.5-2.5 1.2-5.7 1.4-7.3.3-1.5.8-3.7 1.1-4.8.4-1.2.9-3.3 1.1-4.7.8-4.5 1.2-6.7 1.4-6.7.1 0 .3-.9.5-2 1.1-5.9 1.4-7.4 2.3-11.5.6-2.5 1.3-5.9 1.6-7.5.3-1.7.8-3.9 1-5 .3-1.1 1.8-8.3 3.5-16 1.6-7.7 4.1-19.2 5.5-25.5 1.5-6.3 2.9-13.1 3.1-15 .3-1.9.8-4.3 1.1-5.2.3-1 .8-3 1-4.5.3-1.6 1-4.8 1.5-7.3.6-2.5 1.2-5.2 1.4-6.1.2-.9 1.3-6.1 2.5-11.5 1.2-5.5 2.4-11 2.6-12.4.3-1.4 1.8-8.5 3.4-15.8 1.7-7.4 3.2-14.6 3.5-16 .3-1.5.7-3.8 1-5.2.3-1.4.8-3.6 1.1-5 .4-2.3 1.6-7.7 1.9-9 .2-.8 1.6-7.4 2-9.5.2-1.1.4-2 .5-2 .1 0 .3-.9.5-2 .4-1.9 1.7-8.4 2-9.5 0-.3.4-2.1.8-4s.9-4.5 1.2-5.8c.3-1.2.7-3.2 1-4.5.2-1.2.9-4.2 1.5-6.7.5-2.5 1.2-5.6 1.4-7 .2-1.4 1.6-7.8 3-14.2 1.4-6.4 2.7-12.7 3-14 .2-1.3 1-4.6 1.6-7.3.6-2.8 1.3-5.9 1.6-7 .2-1.1.9-4.5 1.5-7.5s1.3-6.2 1.4-7c.4-2.2-2.3-8.1-4.5-10.2-1.1-1-3.2-2.3-4.7-3C270.1.1 170.4 0 164.6 1.7z"/></svg>